<?xml version="1.0" encoding="UTF-8" standalone="no"?>
<svg width="58px" height="58px" viewBox="0 0 58 58" version="1.1" xmlns="http://www.w3.org/2000/svg" xmlns:xlink="http://www.w3.org/1999/xlink" xmlns:sketch="http://www.bohemiancoding.com/sketch/ns">
    <!-- Generator: Sketch 3.2.2 (9983) - http://www.bohemiancoding.com/sketch -->
    <title>B logo</title>
    <desc>Created with Sketch.</desc>
    <defs></defs>
    <g id="Page-1" stroke="none" stroke-width="1" fill="none" fill-rule="evenodd" sketch:type="MSPage">
        <g id="Artboard-26" sketch:type="MSArtboardGroup" transform="translate(-12.000000, -56.000000)">
            <g id="Navbar" sketch:type="MSLayerGroup" transform="translate(1.000000, 55.000000)">
                <g id="B-logo" transform="translate(12.000000, 2.000000)" sketch:type="MSShapeGroup">
                    <circle id="Oval-65" stroke="#FF9C5B" fill="#FFFFFF" cx="28" cy="28" r="28"></circle>
                    <g id="b-logo" transform="translate(18.000000, 9.000000)" fill="#FF9C5B">
                        <path d="M24.6666944,25.1919584 C24.6666944,27.8751635 24.0171446,30.1955106 22.7180255,32.153069 C21.4189064,34.1106275 19.6100336,35.6209625 17.2913527,36.6841193 C15.6468982,37.4266415 13.7516928,37.9582119 11.6056797,38.2788465 C9.45966656,38.599481 6.84091203,38.7597959 3.74933754,38.7597959 C2.87777665,38.7597959 2.16656074,38.7555771 1.61566848,38.7471394 C1.06477622,38.7387016 0.526225444,38.7344828 0,38.7344828 C0,37.5531975 0.0123332238,35.3467584 0.0370000415,32.1150994 C0.0616668592,28.8834403 0.0740000831,24.5675948 0.0740000831,19.1674335 C0.0740000831,15.269192 0.0657779339,14.9823407 0.0493333887,12.7378986 L7.49867509,12.7378985 L7.49867509,12.7378985 C10.0969132,12.822276 12.2634495,13.0838424 13.9983491,13.5226056 C15.7332486,13.9613687 17.2831237,14.5773153 18.6480209,15.370464 C20.6049218,16.3998698 22.0972419,17.7667651 23.125026,19.471191 C24.15281,21.175617 24.6666944,23.0825203 24.6666944,25.1919584 L24.6666944,25.1919584 Z M15.9223512,21.306393 C15.1576799,20.2516739 14.1504666,19.4627559 12.9006812,18.9396153 C12.1606766,18.6021052 11.3754614,18.3658517 10.5450118,18.2308477 C9.71456231,18.0958437 8.86356987,18.0283426 7.99200897,18.0283426 L7.56034182,18.0283426 L7.20267475,18.0283426 C7.20267475,18.3321017 7.19856368,19.3488356 7.19034141,21.0785748 C7.18211913,22.808314 7.17800806,24.2553667 7.17800806,25.4197765 C7.17800806,27.3267085 7.18211913,28.7737613 7.19034141,29.7609783 C7.19856368,30.7481953 7.20267475,31.7986797 7.20267475,32.9124629 C8.45246018,32.9124629 9.6323386,32.8069926 10.7423454,32.5960488 C11.8523522,32.385105 12.7855661,32.0602564 13.5420152,31.6214933 C14.7260225,30.9464732 15.6099035,30.0858354 16.1936848,29.0395541 C16.7774662,27.9932728 17.0693525,26.6770032 17.0693525,25.0907058 C17.0693525,23.622537 16.6870226,22.361112 15.9223512,21.306393 Z" id="b"></path>
                        <path d="M-0.0029640463,0.941880287 C-0.0029640463,0.941880287 17.5027274,-3.4716357 17.7010759,7.89174112 C17.8994244,19.2551179 0.00851941071,13.1780879 0.00851941071,13.1780879 L-0.0029640463,0.941880287 Z" id="Path-1"></path>
                    </g>
                </g>
            </g>
        </g>
    </g>
</svg>